<?xml version="1.0" encoding="UTF-8"?>
<svg width="1200" height="400" viewBox="0 0 1200 400" xmlns="http://www.w3.org/2000/svg">
  <defs>
    <linearGradient id="bannerGradient" x1="0%" y1="0%" x2="100%" y2="100%">
      <stop offset="0%" style="stop-color:#FFC46B;stop-opacity:1" />
      <stop offset="50%" style="stop-color:#FF8A5E;stop-opacity:1" />
      <stop offset="100%" style="stop-color:#FF5F8F;stop-opacity:1" />
    </linearGradient>
    
    <pattern id="dotPattern" width="20" height="20" patternUnits="userSpaceOnUse">
      <circle cx="5" cy="5" r="2" fill="#FFE0A3" opacity="0.3" />
    </pattern>
  </defs>
  
  <!-- Background -->
  <rect width="1200" height="400" fill="url(#bannerGradient)" />
  <rect width="1200" height="400" fill="url(#dotPattern)" />
  
  <!-- Wave decoration -->
  <path d="M0,320 Q300,280 600,320 T1200,320 L1200,400 L0,400 Z" fill="white" opacity="0.4" />
  <path d="M0,350 Q300,310 600,350 T1200,350 L1200,400 L0,400 Z" fill="white" opacity="0.6" />
  
  <!-- Decorative circles -->
  <circle cx="100" cy="100" r="40" fill="white" opacity="0.2" />
  <circle cx="1100" cy="150" r="60" fill="white" opacity="0.2" />
  <circle cx="300" cy="50" r="20" fill="white" opacity="0.2" />
  <circle cx="900" cy="80" r="30" fill="white" opacity="0.2" />
  
  <!-- Duolingo-style characters -->
  <!-- Hawaiian shirt person -->
  <g transform="translate(800, 150)">
    <circle cx="50" cy="50" r="40" fill="#FFE8D6" />
    <circle cx="35" cy="40" r="5" fill="#333" />
    <circle cx="65" cy="40" r="5" fill="#333" />
    <path d="M40,65 Q50,75 60,65" stroke="#333" stroke-width="3" fill="none" />
    
    <!-- Hawaiian shirt -->
    <rect x="20" y="90" width="60" height="70" rx="5" fill="#5DD39E" />
    <circle cx="35" cy="105" r="3" fill="#FFC46B" />
    <circle cx="50" cy="105" r="3" fill="#FFC46B" />
    <circle cx="65" cy="105" r="3" fill="#FFC46B" />
    <path d="M25,120 Q40,125 55,120" stroke="#FF8A5E" stroke-width="2" fill="none" />
    <path d="M45,130 Q60,135 75,130" stroke="#FF8A5E" stroke-width="2" fill="none" />
    <path d="M25,140 Q40,145 55,140" stroke="#FF8A5E" stroke-width="2" fill="none" />
    <path d="M45,150 Q60,155 75,150" stroke="#FF8A5E" stroke-width="2" fill="none" />
  </g>
  
  <!-- Chef character -->
  <g transform="translate(250, 200)">
    <circle cx="50" cy="50" r="40" fill="#FFE8D6" />
    <circle cx="35" cy="40" r="5" fill="#333" />
    <circle cx="65" cy="40" r="5" fill="#333" />
    <path d="M40,65 Q50,75 60,65" stroke="#333" stroke-width="3" fill="none" />
    
    <!-- Chef hat and uniform -->
    <path d="M20,30 Q50,5 80,30 L80,50 L20,50 Z" fill="white" />
    <rect x="20" y="90" width="60" height="70" rx="5" fill="white" />
    <rect x="45" y="90" width="10" height="70" rx="0" fill="#EFEFEF" />
    <circle cx="35" cy="105" r="3" fill="#333" />
    <circle cx="35" cy="125" r="3" fill="#333" />
    <circle cx="35" cy="145" r="3" fill="#333" />
  </g>
  
  <!-- Animated Elements -->
  <g>
    <!-- Floating food items -->
    <circle cx="500" cy="150" r="20" fill="#FFD166">
      <animate attributeName="cy" values="150;140;150;160;150" dur="4s" repeatCount="indefinite" />
    </circle>
    <rect x="650" y="100" width="40" height="40" rx="5" fill="#FF6392">
      <animate attributeName="y" values="100;90;100;110;100" dur="5s" repeatCount="indefinite" />
    </rect>
    <path d="M150,200 L170,230 L190,200 Z" fill="#73D2DE">
      <animate attributeName="transform" attributeType="XML" type="translate" 
             values="0,0; 0,-10; 0,0; 0,10; 0,0" dur="3s" repeatCount="indefinite" />
    </path>
  </g>
</svg>
