<?xml version="1.0" encoding="UTF-8"?>
<svg width="300" height="250" viewBox="0 0 300 250" xmlns="http://www.w3.org/2000/svg">
  <defs>
    <linearGradient id="storyGradient" x1="0%" y1="0%" x2="100%" y2="100%">
      <stop offset="0%" style="stop-color:#78E08F;stop-opacity:1" />
      <stop offset="100%" style="stop-color:#38AEE6;stop-opacity:1" />
    </linearGradient>
  </defs>
  
  <!-- Background elements -->
  <circle cx="150" cy="125" r="100" fill="#f9f9f9" />
  <path d="M60,180 Q150,220 240,180" fill="none" stroke="#78E08F" stroke-width="3" stroke-linecap="round" opacity="0.5" />
  
  <!-- Book -->
  <g transform="translate(100, 70)">
    <!-- Cover -->
    <rect x="0" y="0" width="100" height="120" rx="5" ry="5" fill="url(#storyGradient)" />
    
    <!-- Pages -->
    <rect x="5" y="5" width="45" height="110" rx="2" ry="2" fill="white" />
    
    <!-- Text lines -->
    <line x1="15" y1="25" x2="40" y2="25" stroke="#ddd" stroke-width="3" stroke-linecap="round" />
    <line x1="15" y1="40" x2="35" y2="40" stroke="#ddd" stroke-width="3" stroke-linecap="round" />
    <line x1="15" y1="55" x2="38" y2="55" stroke="#ddd" stroke-width="3" stroke-linecap="round" />
    <line x1="15" y1="70" x2="30" y2="70" stroke="#ddd" stroke-width="3" stroke-linecap="round" />
    <line x1="15" y1="85" x2="40" y2="85" stroke="#ddd" stroke-width="3" stroke-linecap="round" />
    
    <!-- Hawaii icon -->
    <g transform="translate(65, 50)">
      <path d="M0,40 C10,5 20,25 30,10" stroke="white" stroke-width="3" fill="none" stroke-linecap="round" />
      <circle cx="5" cy="35" r="5" fill="#FFBE0B" />
      <circle cx="25" cy="15" r="5" fill="#FFBE0B" />
    </g>
  </g>
  
  <!-- Animated elements -->
  <g>
    <circle cx="60" cy="50" r="10" fill="#FB5607">
      <animate attributeName="cy" values="50;45;50;55;50" dur="4s" repeatCount="indefinite" />
    </circle>
    <circle cx="240" cy="70" r="8" fill="#FFBE0B">
      <animate attributeName="cy" values="70;65;70;75;70" dur="3s" repeatCount="indefinite" />
    </circle>
    <circle cx="220" cy="200" r="12" fill="#38AEE6">
      <animate attributeName="cy" values="200;195;200;205;200" dur="5s" repeatCount="indefinite" />
    </circle>
  </g>
</svg>
