<?xml version="1.0" encoding="UTF-8"?>
<svg width="300" height="250" viewBox="0 0 300 250" xmlns="http://www.w3.org/2000/svg">
  <defs>
    <linearGradient id="teamGradient" x1="0%" y1="0%" x2="100%" y2="100%">
      <stop offset="0%" style="stop-color:#FF9A5A;stop-opacity:1" />
      <stop offset="100%" style="stop-color:#FF6392;stop-opacity:1" />
    </linearGradient>
  </defs>
  
  <!-- Background shape -->
  <circle cx="150" cy="125" r="100" fill="#f9f9f9" />
  
  <!-- Team figures -->
  <g transform="translate(75, 80)">
    <!-- Person 1 (Chef) -->
    <g transform="translate(0, 0)">
      <circle cx="25" cy="25" r="25" fill="#5DD39E" />
      <circle cx="25" cy="15" r="12" fill="#FFE8D6" />
      <path d="M15,30 Q25,40 35,30" stroke="#664E4C" stroke-width="2" fill="none" />
      <rect x="15" y="35" width="20" height="30" rx="5" fill="white" />
      <rect x="13" y="60" width="24" height="5" rx="2" fill="#FFD7BA" />
      <!-- Chef hat -->
      <path d="M10,12 Q25,-5 40,12 L40,15 L10,15 Z" fill="white" />
    </g>
    
    <!-- Person 2 (Server) -->
    <g transform="translate(60, 0)">
      <circle cx="25" cy="25" r="25" fill="#FF8A5E" />
      <circle cx="25" cy="15" r="12" fill="#FFE8D6" />
      <path d="M15,30 Q25,40 35,30" stroke="#664E4C" stroke-width="2" fill="none" />
      <rect x="15" y="35" width="20" height="30" rx="5" fill="white" />
      <!-- Bow tie -->
      <rect x="20" y="35" width="10" height="5" fill="black" />
      <path d="M20,35 L15,32 L15,43 L20,40 Z" fill="black" />
      <path d="M30,35 L35,32 L35,43 L30,40 Z" fill="black" />
    </g>
    
    <!-- Person 3 (Manager) -->
    <g transform="translate(120, 0)">
      <circle cx="25" cy="25" r="25" fill="#5B8FF9" />
      <circle cx="25" cy="15" r="12" fill="#FFE8D6" />
      <path d="M15,30 Q25,40 35,30" stroke="#664E4C" stroke-width="2" fill="none" />
      <rect x="15" y="35" width="20" height="30" rx="5" fill="white" />
      <!-- Tie -->
      <path d="M25,35 L29,40 L25,65 L21,40 Z" fill="#1A569D" />
    </g>
  </g>
  
  <!-- Connected dots -->
  <path d="M100,125 L140,125 M160,125 L200,125" stroke="#CDCDCD" stroke-width="3" stroke-dasharray="5,5" />
  
  <!-- Animated elements -->
  <g>
    <circle cx="60" cy="50" r="10" fill="#FF8A5E">
      <animate attributeName="cy" values="50;45;50;55;50" dur="4s" repeatCount="indefinite" />
    </circle>
    <circle cx="240" cy="70" r="8" fill="#5DD39E">
      <animate attributeName="cy" values="70;65;70;75;70" dur="3.5s" repeatCount="indefinite" />
    </circle>
    <circle cx="220" cy="200" r="12" fill="#5B8FF9">
      <animate attributeName="cy" values="200;195;200;205;200" dur="4.5s" repeatCount="indefinite" />
    </circle>
  </g>
</svg>
