<?xml version="1.0" encoding="UTF-8"?>
<svg width="120" height="120" viewBox="0 0 120 120" fill="none" xmlns="http://www.w3.org/2000/svg">
  <!-- Background circle -->
  <circle cx="60" cy="60" r="60" fill="#FFF9C4" />
  
  <!-- Pineapple body -->
  <path d="M60 30C50 30 45 35 45 40C45 45 48 50 50 55C52 60 55 70 60 70C65 70 68 60 70 55C72 50 75 45 75 40C75 35 70 30 60 30Z" fill="#FFEB3B" stroke="#FBC02D" stroke-width="2" />
  
  <!-- Pineapple pattern -->
  <path d="M50 42C52 44 58 44 60 42" stroke="#FBC02D" stroke-width="1.5" stroke-linecap="round" />
  <path d="M60 42C62 44 68 44 70 42" stroke="#FBC02D" stroke-width="1.5" stroke-linecap="round" />
  <path d="M50 48C52 50 58 50 60 48" stroke="#FBC02D" stroke-width="1.5" stroke-linecap="round" />
  <path d="M60 48C62 50 68 50 70 48" stroke="#FBC02D" stroke-width="1.5" stroke-linecap="round" />
  <path d="M50 54C52 56 58 56 60 54" stroke="#FBC02D" stroke-width="1.5" stroke-linecap="round" />
  <path d="M60 54C62 56 68 56 70 54" stroke="#FBC02D" stroke-width="1.5" stroke-linecap="round" />
  <path d="M55 60C57 62 63 62 65 60" stroke="#FBC02D" stroke-width="1.5" stroke-linecap="round" />
  
  <!-- Pineapple crown -->
  <path d="M50 30C53 20 55 15 60 15C65 15 67 20 70 30" fill="#4CAF50" />
  <path d="M50 30C53 20 55 15 60 15C65 15 67 20 70 30" stroke="#388E3C" stroke-width="1.5" />
  <path d="M55 30C57 23 58 20 60 18C62 20 63 23 65 30" fill="#4CAF50" stroke="#388E3C" stroke-width="1" />
  
  <!-- Sunglasses -->
  <path d="M48 38C48 36.8954 48.8954 36 50 36H58C59.1046 36 60 36.8954 60 38V38C60 39.1046 59.1046 40 58 40H50C48.8954 40 48 39.1046 48 38V38Z" fill="#212121" />
  <path d="M60 38C60 36.8954 60.8954 36 62 36H70C71.1046 36 72 36.8954 72 38V38C72 39.1046 71.1046 40 70 40H62C60.8954 40 60 39.1046 60 38V38Z" fill="#212121" />
  <path d="M60 38H60.01" stroke="white" stroke-linecap="round" />
  
  <!-- Smile -->
  <path d="M54 45C55.5 47 58.5 47 60 45C61.5 47 64.5 47 66 45" stroke="#FB8C00" stroke-width="1.5" stroke-linecap="round" />
  
  <!-- Animation waves -->
  <path d="M40 80C45 83 55 83 60 80C65 83 75 83 80 80" stroke="#29B6F6" stroke-width="2" stroke-linecap="round" opacity="0.8">
    <animate attributeName="d" values="M40 80C45 83 55 83 60 80C65 83 75 83 80 80;M40 81C45 78 55 78 60 81C65 78 75 78 80 81;M40 80C45 83 55 83 60 80C65 83 75 83 80 80" dur="3s" repeatCount="indefinite" />
  </path>
  <path d="M30 90C40 93 50 93 60 90C70 93 80 93 90 90" stroke="#29B6F6" stroke-width="2" stroke-linecap="round" opacity="0.6">
    <animate attributeName="d" values="M30 90C40 93 50 93 60 90C70 93 80 93 90 90;M30 91C40 88 50 88 60 91C70 88 80 88 90 91;M30 90C40 93 50 93 60 90C70 93 80 93 90 90" dur="3s" repeatCount="indefinite" begin="0.5s" />
  </path>
  <path d="M20 100C35 103 50 103 60 100C70 103 85 103 100 100" stroke="#29B6F6" stroke-width="2" stroke-linecap="round" opacity="0.4">
    <animate attributeName="d" values="M20 100C35 103 50 103 60 100C70 103 85 103 100 100;M20 101C35 98 50 98 60 101C70 98 85 98 100 101;M20 100C35 103 50 103 60 100C70 103 85 103 100 100" dur="3s" repeatCount="indefinite" begin="1s" />
  </path>
</svg>
