<?xml version="1.0" encoding="UTF-8"?>
<svg width="200px" height="150px" viewBox="0 0 200 150" version="1.1" xmlns="http://www.w3.org/2000/svg">
    <g stroke="none" fill="none">
        <!-- Background elements -->
        <path d="M40,120 Q60,90 90,100 T150,80" stroke="#FFB347" stroke-width="2" opacity="0.5">
            <animate attributeName="d" 
                     dur="15s" 
                     values="M40,120 Q60,90 90,100 T150,80;
                             M40,115 Q65,95 95,105 T150,85;
                             M40,120 Q60,90 90,100 T150,80" 
                     repeatCount="indefinite" />
        </path>
        
        <!-- Person figure -->
        <g transform="translate(80, 60)">
            <!-- Head -->
            <circle cx="20" cy="15" r="12" fill="#FFB347" />
            
            <!-- Body -->
            <path d="M20,30 L20,60" stroke="#333" stroke-width="3" />
            
            <!-- Arms -->
            <path d="M20,40 L5,50" stroke="#333" stroke-width="3">
                <animate attributeName="d" 
                         dur="5s" 
                         values="M20,40 L5,50;
                                 M20,40 L10,45;
                                 M20,40 L5,50" 
                         repeatCount="indefinite" />
            </path>
            <path d="M20,40 L35,50" stroke="#333" stroke-width="3">
                <animate attributeName="d" 
                         dur="5s" 
                         values="M20,40 L35,50;
                                 M20,40 L30,45;
                                 M20,40 L35,50" 
                         repeatCount="indefinite" />
            </path>
            
            <!-- Legs -->
            <path d="M20,60 L10,80" stroke="#333" stroke-width="3" />
            <path d="M20,60 L30,80" stroke="#333" stroke-width="3" />
        </g>
        
        <!-- Document -->
        <g transform="translate(130, 70)">
            <!-- Paper -->
            <rect x="0" y="0" width="30" height="40" fill="#FFFFFF" stroke="#4FACFE" stroke-width="2" rx="3" />
            
            <!-- Lines -->
            <line x1="5" y1="10" x2="25" y2="10" stroke="#4FACFE" stroke-width="1" />
            <line x1="5" y1="15" x2="25" y2="15" stroke="#4FACFE" stroke-width="1" />
            <line x1="5" y1="20" x2="20" y2="20" stroke="#4FACFE" stroke-width="1" />
            <line x1="5" y1="25" x2="15" y2="25" stroke="#4FACFE" stroke-width="1" />
        </g>
        
        <!-- Restaurant -->
        <g transform="translate(30, 50)">
            <!-- Building -->
            <rect x="0" y="0" width="30" height="25" fill="#FFCC33" rx="2" />
            <rect x="12" y="15" width="8" height="10" fill="#FFFFFF" />
            <rect x="0" y="0" width="30" height="5" fill="#FF758C" rx="2" />
            
            <!-- Sign -->
            <rect x="5" y="-5" width="20" height="5" fill="#4FACFE" rx="2" />
        </g>
    </g>
</svg>
